<svg  version="1.1" xmlns="http://www.w3.org/2000/svg">
    <svg viewBox="0 0 25.4 25.4" id="opus-grows-arrow-right">
        <g>
            <path d="M15.2 11.4C11.6 7.8 7.9 4.2 4.3.5 2.7-1.1.1 1.4 1.8 3.1l9.6 9.6-9.6 9.6c-1.6 1.6.9 4.2 2.5 2.5l10.9-10.9c.7-.6.7-1.8 0-2.5z" fill="#fff"></path>
            <path d="M23.6 11.4C20 7.8 16.4 4.2 12.8.5c-1.6-1.6-4.2.9-2.5 2.5l9.6 9.6-9.6 9.6c-1.6 1.6.9 4.2 2.5 2.5l10.9-10.9c.6-.5.6-1.7-.1-2.4z" fill="#fff">
            </path>
        </g>
    </svg>
</svg>