<svg  version="1.1" xmlns="http://www.w3.org/2000/svg">
    <svg viewBox="0 0 214.5 143.9" id="opus-grows-footer-logo">
        <path d="M42.9 56.7c0 5.5-2 10.3-5.9 14.2-3.8 3.9-8.6 5.9-14.1 5.9H20c-5.5 0-10.3-2-14.2-5.9C2 67 0 62.2 0 56.7V19.9C0 14.4 2 9.6 5.8 5.8 9.7 2 14.5 0 20 0h2.9C28.4 0 33.2 2 37 5.8c3.9 3.8 5.9 8.6 5.9 14.1v36.8zM29.6 22.3c0-5.6-3.5-10-7.9-10s-8.1 4.5-8.1 10v32.4c0 2.7.8 5 2.4 6.9 1.6 2 3.5 2.9 5.7 2.9 4.4 0 7.9-4.3 7.9-9.8V22.3zm70.3 2.9c0 5.5-2 10.3-5.8 14.2-3.8 3.8-8.5 5.8-14 5.8h-6.5c-1.7 0-2.5.8-2.5 2.5v25.5c0 1.7-.8 2.5-2.6 2.5h-8c-1.6 0-2.3-.8-2.3-2.5V3.5C58 1.9 58.8 1 60.4 1h19.7c5.5 0 10.2 2 14 5.9 3.8 3.8 5.8 8.6 5.8 14.1v4.2zm-13.2-5.1c0-4.1-3.5-7.4-7.7-7.4h-5.1c-1.2 0-2.7 1-2.7 2.4v16.4c0 1.4 1.5 2.4 2.7 2.4H79c4.1 0 7.7-3.4 7.7-7.6v-6.2zm69.9 36.6c0 5.5-2.1 10.2-6.1 14.2-4 3.9-8.9 5.9-14.4 5.9h-2.3c-5.5 0-10.4-2-14.4-5.9-4-4-6-8.7-6-14.2V3.5c0-1.6.7-2.4 2.3-2.4h8c1.6 0 2.4.8 2.4 2.4v51.8c0 2.7.8 5.1 2.6 7.1s3.7 3 6.1 3c2.2 0 4.2-1 5.9-3 1.8-2 2.6-4.4 2.6-7.1V3.5c0-1.6.8-2.4 2.5-2.4h8c1.4 0 2.6 1.2 2.6 2.4v53.2zm51.9 14.9c-3.9 3.6-9 5.4-15.2 5.4-7.4 0-13.1-2.6-17.1-7.8-2.2-2.9-4.1-6.9-5.6-12.1-.5-1.5.1-2.5 1.5-3l6.9-2.3c.3-.1.6-.1.8-.1 1.2 0 2.1.6 2.4 1.8 2.1 7.8 5.8 11.7 11 11.7s8.3-3.2 8.3-8.1c0-3.3-2.5-7.2-7.7-11.6l-14.1-11.8c-5.1-5-7.7-10-7.7-14.9 0-5.9 2-10.5 6-13.9 3.6-3.2 8.1-4.8 13.5-4.8 6.5 0 11.9 2.5 15.9 7.7 2.1 2.6 3.6 5.7 4.7 9.2.1.3.1.6.1.8 0 1.1-.6 1.9-1.7 2.2l-6.1 2c-.3.1-.5.2-.7.2-1.1 0-1.9-.6-2.3-1.7-2.8-6.6-6.1-9.9-9.8-9.9-2 0-3.7.8-5.2 2.5-1.4 1.7-2.1 3.5-2.1 5.7 0 2.5 2.6 6 7.8 10.2 8.5 6.8 13.4 10.9 14.6 12.1 5.2 5.3 7.8 10.6 7.8 16 0 6-2 10.8-6 14.5zM31.2 141c0 1.3-.6 2-1.9 2h-1c-.9 0-1.5-.7-2-2l-.3-.8c-.2-.6-.5-1-.7-1-.2 0-.5.3-1 1-1.8 2.4-4.4 3.6-7.8 3.6h-1.2c-4.6 0-8.3-1.5-11.1-4.5-2.8-3-4.2-6.7-4.2-11v-25.4c0-4.2 1.5-7.8 4.4-10.8 3-3 6.6-4.5 10.8-4.5h.6c4.2 0 7.7 1.5 10.7 4.5 2.9 3 4.4 6.6 4.4 10.8v2.3c0 1.3-.6 2-1.9 2h-5.3c-1 0-2-1.2-2-2v-.8c0-4.1-2.8-7.6-6.1-7.6-3.4 0-6.1 3.4-6.1 7.6v22.8c0 4.4 2.3 7.5 6.1 7.5 4 0 6.1-2.5 6.1-7.5v-2.3c0-1-.9-1.9-1.9-1.9H17c-1 0-2-1-2-2v-3.7c0-1 .9-2 2-2h12.2c1 0 1.9 1.2 1.9 2V141zm42.5.1c.1.2.1.3.1.5 0 .9-.5 1.4-1.5 1.4h-5.9c-.8 0-1.4-.6-1.8-1.8l-7-19.9c-.3-.9-.8-1.4-1.4-1.4h-3c-1.2 0-1.7.6-1.7 1.8v19.4c0 .9-.8 1.8-1.8 1.8H44c-1.2 0-1.7-.6-1.7-1.8v-51c0-1.2.5-1.8 1.7-1.8h14c4.1 0 7.6 1.3 10.4 3.9 2.9 2.7 4.3 6.2 4.3 10.4v2.7c0 5.4-2.3 9.6-6.9 12.4-.2.1-.3.5-.1 1l8 22.4zm-9.8-39c0-3-2.5-5.4-5.5-5.4h-5.3c-1 0-1.6.6-1.6 1.8V110c0 1.2.5 1.8 1.7 1.8h5.1c3.1 0 5.5-2.3 5.5-5.3v-4.4zm51.2 26.9c0 4-1.4 7.5-4.3 10.4-2.8 2.9-6.3 4.3-10.3 4.3h-2.1c-4 0-7.5-1.4-10.4-4.3-2.8-2.9-4.2-6.4-4.2-10.4v-26.9c0-4 1.4-7.5 4.2-10.3 2.9-2.8 6.4-4.2 10.4-4.2h2.1c4 0 7.5 1.4 10.3 4.2 2.9 2.8 4.3 6.3 4.3 10.3V129zm-9.7-25.1c0-4.1-2.6-7.3-5.8-7.3-3.2 0-5.9 3.3-5.9 7.3v23.7c0 2 .6 3.6 1.8 5.1 1.2 1.4 2.6 2.1 4.2 2.1 3.2 0 5.8-3.1 5.8-7.2v-23.7zm57.3 37.2c-.2 1.2-.8 1.8-1.8 1.8h-5.6c-1 0-1.6-.6-1.8-1.8l-5.8-29.1c-.3-1.4-.5-2.1-.9-2.1-.3 0-.6.7-.9 2.1l-5.7 29.1c-.2 1.2-.8 1.8-1.7 1.8h-5.6c-.9 0-1.5-.6-1.7-1.8L121.4 90c-.2-.9.7-1.8 1.7-1.8h5.3c1 0 1.6.6 1.8 1.8l5.4 29c.1.5.4.8.8.8.3 0 .5-.3.6-.8l5.6-28.9c.2-1.2.8-1.8 1.8-1.8h4.8c1 0 1.6.6 1.8 1.8l5.9 28.4c.1.5.3.8.7.8.4 0 .7-.3.8-.8l4-28.5c.1-1.2.8-1.8 1.8-1.8h5.3c1 0 2 .9 1.8 1.8l-8.6 51.1zm45.1-1.2c-2.9 2.7-6.6 4-11.1 4-5.4 0-9.6-1.9-12.5-5.7-1.6-2.1-3-5.1-4.1-8.9-.3-1.1.1-1.8 1.1-2.2l5.1-1.7c.2-.1.4-.1.6-.1.9 0 1.5.4 1.8 1.3 1.6 5.7 4.2 8.5 8.1 8.5s6.1-2.3 6.1-5.9c0-2.4-1.8-5.3-5.6-8.5l-10.3-8.6c-3.8-3.7-5.6-7.3-5.6-10.9 0-4.3 1.4-7.7 4.4-10.2 2.7-2.3 5.9-3.5 9.8-3.5 4.8 0 8.7 1.8 11.6 5.6 1.5 1.9 2.7 4.2 3.4 6.7.1.2.1.4.1.6 0 .8-.4 1.4-1.2 1.6l-4.4 1.4c-.2.1-.3.1-.5.1-.8 0-1.4-.4-1.7-1.2-2.1-4.9-4.4-7.2-7.2-7.2-1.4 0-2.7.6-3.8 1.8-1 1.2-1.6 2.6-1.6 4.2 0 1.8 1.9 4.4 5.7 7.5 6.2 5 9.8 8 10.7 8.9 3.8 3.9 5.7 7.8 5.7 11.7-.2 4.5-1.7 8.1-4.6 10.7z" fill="#fff"></path>
    </svg>
</svg>