<svg  version="1.1" xmlns="http://www.w3.org/2000/svg">
    <svg viewBox="0 0 49 47.6" id="opus-grows-instagram-logo"><path d="M38.3 1.6H10.7C6 1.6 2.3 5.3 2.3 9.9v27.7c0 4.6 3.7 8.3 8.3 8.3h27.7c4.6 0 8.3-3.7 8.3-8.3V9.9c.4-4.6-3.6-8.3-8.3-8.3zM24.5 16.4c4.9 0 8.9 4 8.9 8.9s-4 8.9-8.9 8.9-8.9-4-8.9-8.9 4-8.9 8.9-8.9zm8-2.2V9.3c0-.9.9-1.8 1.8-1.8h4.9c.9 0 1.8.9 1.8 1.8v4.9c0 .9-.9 1.8-1.8 1.8h-4.9c-.9.1-1.8-.8-1.8-1.8zm5.8 28.4H10.7c-2.8 0-4.9-2.2-4.9-4.9v-17h7.1c-.6 1.5-.9 2.8-.9 4.3 0 6.8 5.5 12.6 12.6 12.6S37.1 32.1 37.1 25c0-1.5-.3-3.1-.9-4.3h7.1v16.9c0 2.8-2.2 5-5 5z" fill="#fff"></path></svg>
</svg>