<svg  version="1.1" xmlns="http://www.w3.org/2000/svg">
    <svg viewBox="0 0 49 47.6" id="opus-grows-pinterest-logo"><path d="M41.6 19.2c-.2 2.9-.9 5.6-2.2 8.2-2.1 4-5.2 6.7-9.8 7.3-3.1.4-5.8-.3-7.9-3-.3 1-.5 2-.8 3-.5 1.9-1 3.9-1.7 5.8-.4 1.2-1.2 2.3-1.7 3.5-1 1.7-3.1.8-3.2-1.6 0-1.6 0-3.3.4-4.9 1.1-4.6 2.2-9.3 3.3-13.9 0-.2 0-.5-.1-.7-.8-2.2-.9-4.5-.1-6.7.5-1.4 1.3-2.5 2.7-3.2 2.3-1.1 4.6.1 5 2.6.1.4.1.8.1 1.1-.1.9-.2 1.8-.5 2.7-.5 2.1-1.2 4.1-1.7 6.1s.6 4 2.6 4.6c1.7.5 3.3.1 4.7-.9 1.3-.9 2.2-2.1 2.9-3.5 1.5-3.1 2.1-6.5 1.8-9.9-.3-3.7-2.1-6.4-5.6-7.8-2.3-.9-4.7-1.1-7.1-.7-5 .8-8.4 3.7-9.8 8.6-.9 3.1-.9 6.1 1.4 8.7.2.2.2.6.2.9-.1.7-.3 1.4-.5 2.1-.2.9-.7 1.1-1.5.7-1.6-.7-2.8-1.8-3.6-3.3-1.3-2.3-1.7-4.9-1.4-7.5.5-4.7 2.7-8.4 6.5-11.2 5-3.6 10.7-4.4 16.6-2.8 4.7 1.2 8.1 4.2 10 8.7 1 2.2 1.2 4.6 1 7z" fill="#fff"></path></svg>
</svg>