<svg  version="1.1" xmlns="http://www.w3.org/2000/svg">
    <svg viewBox="0 0 102 133.9" id="opus-grows-home-ingredients-icon1"><g fill="#ff9544"><path d="M95.3 55.9H52.8h.2v-26c0-2-3-2-3 0v26H6.9c-3.7 0-6.9 2.7-6.9 6.3v14.2c0 3.7 3.2 7.5 6.9 7.5h2.4L23 130.2c.6 2.2 2.7 3.7 5 3.7h46.3c2.3 0 4.3-1.5 5-3.7l13.6-46.3h2.4c3.7 0 6.7-3.8 6.7-7.5V62.2c0-3.6-3.1-6.3-6.7-6.3zm-19.9 73.2c-.1.5-.6.9-1.2.9H28c-.5 0-1-.3-1.2-.9L13.5 83.9h75.2l-13.3 45.2zM98 76.3c0 1.4-1.2 2.6-2.6 2.6H6.6c-1.4 0-2.6-1.2-2.6-2.6V62.5c0-1.4 1.2-2.6 2.6-2.6h88.8c1.4 0 2.6 1.2 2.6 2.6v13.8z"></path><path d="M57.9 26.6C61.3 19 66.1 9.9 74.7 7.5c5.2-1.5 10.6-.3 15.8-1.6 1.5-.4 3.8-2.1 5.2-2.1 2.5.2 1.3 4.2 1 6.1-1.5 9-5.5 17.8-14.8 21-2.8 1-15.2 3.4-19.2.7 11-3.7 23.5-10.1 28.8-20.7 1-2.1-2.1-3.9-3.1-1.8-5.2 10.4-18.3 16.5-29 19.8-.9.3-1.5 1.3-1.3 2.2 1.2 4.4 7.9 5.1 11.6 5.1 10.5.1 20.8-3.2 26.2-12.8 2-3.6 3.3-7.7 4-11.7.6-3 2-8.1-.5-10.6-2-2.1-4.9-.7-7.2.2-5.7 2.3-11.9 1-17.8 2.4-10.1 2.4-15.8 12.2-19.8 21-.8 2.2 2.3 4 3.3 1.9zM27.7 36c4.4.5 14.9 1.2 16.6-4.9.3-1-.3-1.9-1.3-2.2-10.7-3.3-23.8-9.4-29-19.8-1-2-4.1-.2-3 1.9 5.2 10.5 17.8 17 28.8 20.7-3.8 2.6-15.8.4-18.5-.5-9.6-3-13.8-11.9-15.4-21.2-.4-1.9-1.6-6 .9-6.1 1.3-.1 3.4 1.6 4.7 1.9 5 1.4 10.4.2 15.5 1.5 9.1 2.2 14 11.4 17.6 19.3 1 2.1 4.1.3 3.1-1.8-3.3-7.3-8-16-15.6-19.5-5.4-2.5-11-2.1-16.8-2.5C12 2.5 7.6-.9 4.3.3c-6.1 2.2-1 16.3.7 20.2C9.2 30.2 17.4 34.9 27.7 36z"></path></g></svg>
</svg>