<svg  version="1.1" xmlns="http://www.w3.org/2000/svg">
    <svg viewBox="0 0 56.3 60.2" id="opus-grows-nav-cart-icon"><path d="M20.7 10.6c.5-9.1 13.6-9.1 14.1 0 .1 2.3 3.7 2.3 3.6 0C38.1 4.9 33.8 0 27.8 0S17.5 4.9 17.2 10.6c-.2 2.4 3.4 2.4 3.5 0zm33.8 5.9c-1.3-1.5-3.3-2.3-5.3-2.3H7.1c-2 0-4 .8-5.3 2.3C.4 18-.2 20 .1 22l4.1 32c.5 3.5 3.5 6.2 7 6.2H45c3.6 0 6.6-2.7 7-6.2l4.1-31.9c.4-2.1-.2-4.1-1.6-5.6zm-2.2 5l-4.1 32c-.2 1.5-1.5 2.7-3.1 2.7H11.2c-1.6 0-2.9-1.2-3.1-2.7L4 21.5c-.1-.9.1-1.6.7-2.3.6-.7 1.4-.9 2.3-.9h42.1c.9 0 1.7.3 2.3.9.7.6 1 1.4.9 2.3z" fill="#555"></path></svg>
</svg>